<?xml version="1.0" encoding="utf-8"?>
<!-- Generator: Adobe Illustrator 16.0.0, SVG Export Plug-In . SVG Version: 6.00 Build 0)  -->
<!DOCTYPE svg PUBLIC "-//W3C//DTD SVG 1.1//EN" "http://www.w3.org/Graphics/SVG/1.1/DTD/svg11.dtd">
<svg version="1.1" id="Layer_1" xmlns="http://www.w3.org/2000/svg" xmlns:xlink="http://www.w3.org/1999/xlink" x="0px" y="0px"
	 width="50px" height="50px" viewBox="0 0 50 50" style="enable-background:new 0 0 50 50;" xml:space="preserve">
<path style="fill:#5F83A7;" d="M19.9,26l1,1c0.2,0.2,0.5,0.2,0.7,0l5.4-5.4c0.2-0.2,0.2-0.5,0-0.7l-1-1c-0.2-0.2-0.2-0.5,0-0.7
	c0.1-0.1,0.2-0.2,0.4-0.2v0l1.9,0h1.2l0.6,0h0.1c0.2,0,0.4,0.1,0.5,0.2c0.1,0.1,0.2,0.3,0.2,0.5v0.1v0.6v1.2v1.9l0,0.1
	c0,0.1-0.1,0.2-0.1,0.3c-0.2,0.2-0.5,0.2-0.7,0l-1-1c-0.2-0.2-0.5-0.2-0.7,0L23,28.4c-0.2,0.2-0.2,0.5,0,0.7l1,1
	c0.2,0.2,0.2,0.5,0,0.7C23.9,31,23.7,31,23.6,31v0h-1.9l-1.2,0l-0.7,0h-0.1c-0.2,0-0.4-0.1-0.5-0.2c-0.1-0.1-0.2-0.3-0.2-0.5v-0.1
	v-0.6v-1.2v-1.9v-0.1c0-0.1,0.1-0.2,0.1-0.3C19.4,25.8,19.7,25.8,19.9,26z"/>
</svg>
